<svg xmlns="http://www.w3.org/2000/svg" xmlns:xlink="http://www.w3.org/1999/xlink" width="1024" height="1024" viewBox="0 0 1024 1024">
  <rect x="0" y="0" width="1024" height="1024" rx="205" fill="#ffffff"/>
  <svg x="113" y="113" width="798" height="798" viewBox="0 0 2012 2004" preserveAspectRatio="xMidYMid meet">

  <sodipodi:namedview
     id="namedview21"
     pagecolor="#ffffff"
     bordercolor="#000000"
     borderopacity="0.25"
     inkscape:showpageshadow="2"
     inkscape:pageopacity="0.0"
     inkscape:pagecheckerboard="0"
     inkscape:deskcolor="#d1d1d1"
     showgrid="false"
     inkscape:zoom="1.6726547"
     inkscape:cx="251.6957"
     inkscape:cy="222.40095"
     inkscape:window-width="1920"
     inkscape:window-height="1008"
     inkscape:window-x="0"
     inkscape:window-y="0"
     inkscape:window-maximized="1"
     inkscape:current-layer="svg19" />
  <defs
     id="defs7">
    <linearGradient
       id="Gradient1"
       gradientUnits="userSpaceOnUse"
       x1="1945.83"
       y1="1311.3"
       x2="1814.61"
       y2="1176.24">
      <stop
         class="stop0"
         offset="0"
         stop-opacity="1"
         stop-color="rgb(162,129,24)"
         id="stop2" />
      <stop
         class="stop1"
         offset="1"
         stop-opacity="1"
         stop-color="rgb(216,187,95)"
         id="stop4" />
    </linearGradient>
  </defs>
  <path
     transform="translate(0,0)"
     fill="rgb(31,35,48)"
     d="M 970.432 22.4345 C 981.815 21.6639 1024.67 21.1332 1034.35 22.4953 C 1056.08 25.3402 1075.75 36.8098 1088.92 54.3191 C 1125.15 103.043 1102.59 174.036 1041.72 187.768 C 1025.02 191.536 1002.57 190.104 984.957 190.686 C 968.011 191.197 951.09 192.338 934.23 194.108 C 898.638 197.975 861.492 202.935 826.524 210.755 C 674.017 244.86 526.664 321.08 415.698 432.023 C 296.665 552.473 219.673 708.114 196.164 875.817 C 189.68 920.492 189.007 949.238 189.247 994.496 C 190.228 1145.48 233.965 1293.1 315.392 1420.26 C 331.788 1446.35 350.886 1472.28 369.359 1497.01 C 424.043 1476.09 460.132 1468.76 519.166 1483.9 C 626.452 1511.4 699.073 1632.92 667.139 1740.67 C 679.939 1745.85 695.107 1753.49 708.377 1759.2 C 730.166 1768.51 752.312 1776.96 774.764 1784.53 C 889.612 1822.78 1011.63 1834.56 1131.67 1818.97 C 1343.19 1792.23 1535.16 1681.84 1664.69 1512.49 C 1683.55 1487.96 1698.14 1478.46 1729.94 1473.65 C 1752.33 1470.26 1775.38 1477.33 1793.27 1491.34 C 1809.59 1504.35 1820.23 1523.2 1822.92 1543.9 C 1828.16 1587.34 1807.61 1604.45 1783.24 1635.95 C 1661.91 1782.4 1500.4 1890.17 1318.6 1945.98 C 1067.87 2022.14 797.094 1994.78 566.665 1870.02 C 528.04 1894 470.243 1902.91 425.649 1894.62 C 369.54 1884.46 319.801 1852.34 287.458 1805.38 C 261.543 1766.91 249.266 1720.87 252.588 1674.61 C 253.794 1657.9 256.953 1642.49 260.041 1626.06 C 239.319 1600.14 220.649 1579.2 200.92 1551.32 C 90.7722 1398.35 27.355 1216.72 18.3547 1028.44 C 9.51322 816.719 70.7281 607.99 192.519 434.581 C 369.136 183.881 667.144 37.464 970.432 22.4345 z"
     id="path11" />
  <path
     transform="translate(0,0)"
     fill="rgb(195,163,62)"
     d="M 1537.84 383.935 C 1533.22 381.115 1508.93 360.481 1502.57 355.602 C 1477 335.794 1450.11 317.744 1422.09 301.578 C 1390.05 282.944 1357.44 267.104 1323.06 253.241 C 1305.39 246.112 1288.3 238.984 1275.03 224.787 C 1258.4 207.115 1249.49 183.545 1250.28 159.291 C 1251.11 134.595 1261.96 111.302 1280.33 94.772 C 1302.27 75.0564 1336.94 68.1976 1365.18 76.3856 C 1384.4 81.9602 1404.77 90.5521 1422.98 98.9517 C 1521.36 144.322 1613.74 204.599 1691.75 280.025 C 1697.86 285.941 1704.17 291.488 1709.81 297.892 C 1720.19 306.396 1730.1 318.456 1739.24 328.412 C 1875.56 476.919 1967.51 668.85 1989.34 869.846 C 1993.22 905.519 1996.36 935.186 1971.98 964.77 C 1957.36 982.169 1936.4 993.02 1913.75 994.919 C 1871.69 998.516 1835.82 976.813 1821.42 936.366 C 1816.13 921.507 1815.35 904.116 1813.3 888.442 C 1811.16 872.737 1808.64 857.084 1805.76 841.498 C 1792.56 771.915 1769.96 704.451 1738.57 640.96 C 1701.43 565.899 1652.78 497.102 1594.4 437.06 C 1584.95 427.206 1575.15 417.693 1565.02 408.541 C 1560.54 404.484 1540.2 387.53 1537.84 383.935 z"
     id="path13" />
  <path
     transform="translate(0,0)"
     fill="rgb(215,183,83)"
     d="M 1537.84 383.935 C 1533.22 381.115 1508.93 360.481 1502.57 355.602 C 1477 335.794 1450.11 317.744 1422.09 301.578 C 1390.05 282.944 1357.44 267.104 1323.06 253.241 C 1305.39 246.112 1288.3 238.984 1275.03 224.787 C 1258.4 207.115 1249.49 183.545 1250.28 159.291 C 1251.11 134.595 1261.96 111.302 1280.33 94.772 C 1302.27 75.0564 1336.94 68.1976 1365.18 76.3856 C 1384.4 81.9602 1404.77 90.5521 1422.98 98.9517 C 1521.36 144.322 1613.74 204.599 1691.75 280.025 C 1697.86 285.941 1704.17 291.488 1709.81 297.892 C 1703.86 296.039 1665.22 257.78 1656.66 250.441 C 1622.47 221.148 1586.91 194.553 1548.98 170.239 C 1544.67 167.468 1531.05 158.147 1526.99 156.745 L 1523.96 158.321 L 1522.57 157.653 L 1522.82 153.899 C 1516.64 153.477 1522 157.846 1516.12 154.696 L 1516.19 153.29 L 1519.3 151.535 L 1506.53 144.652 L 1504.78 145.44 C 1504.21 148.209 1505.05 149.837 1505.92 152.546 L 1504.95 153.762 L 1501.52 152.747 L 1500.13 155.113 C 1497.23 155.293 1498.39 155.756 1496.27 154.497 C 1497.51 152.93 1497.83 152.554 1498.64 150.705 C 1495.25 149.884 1495.5 150.445 1491.62 151.48 C 1491.76 148.902 1491.77 149.297 1492.44 146.77 C 1486.41 143.946 1488.3 148.576 1485.74 143.933 C 1486.56 140.738 1488.5 136.077 1487.9 133.582 C 1485.95 135.222 1485.16 138.713 1484.13 141.459 C 1482.38 139.502 1482.86 140.212 1481.76 137.908 L 1478.03 137.139 L 1477.68 135.646 L 1481.06 130.541 L 1479.42 130.077 L 1478.36 130.798 C 1475.49 132.717 1474.45 133.885 1471.06 133.657 L 1469.72 132.72 C 1472.11 128.697 1476.87 130.657 1477.2 128.233 C 1447.94 109.932 1411.65 97.8457 1380.71 83.5429 C 1312.12 51.8378 1233.63 111.211 1255.14 186.256 C 1261.56 209.147 1277.08 228.411 1298.07 239.574 C 1314.22 248.274 1334.28 255.099 1351.59 262.871 C 1415.56 291.571 1474.67 328.628 1528.54 373.425 C 1532.52 376.734 1535.93 379.091 1537.84 383.935 z"
     id="path15" />
  <path
     transform="translate(0,0)"
     fill="url(#Gradient1)"
     d="M 1880.29 1147.2 C 1933.72 1146.89 1977.28 1189.93 1977.62 1243.35 C 1977.95 1296.77 1934.93 1340.36 1881.51 1340.72 C 1828.05 1341.07 1784.43 1298.02 1784.1 1244.56 C 1783.76 1191.11 1826.84 1147.51 1880.29 1147.2 z"
     id="path17" />

  </svg>
</svg>